<svg width="1846" height="318" viewBox="0 0 1846 318" fill="none" xmlns="http://www.w3.org/2000/svg">
<g clip-path="url(#clip0_111_36)">
<path d="M163.314 32.8496V62.7269H255.808V235.895H289.458V32.8496H163.314Z" fill="url(#paint0_linear_111_36)"/>
<path d="M163.314 32.8496V62.7269H255.808V235.895H289.458V32.8496H163.314Z" fill="url(#paint1_linear_111_36)"/>
<path d="M205.258 211.386H112.764V0H79.1172V241.263H205.258V211.386Z" fill="url(#paint2_linear_111_36)"/>
<path d="M33.402 32.8496H-0.245117V318.088H289.458V288.209H33.402V32.8496Z" fill="url(#paint3_linear_111_36)"/>
<path d="M1784.8 269.726C1772.18 269.726 1761.25 266.951 1752 261.4C1742.75 255.849 1735.57 248.084 1730.47 238.104C1725.42 228.124 1722.9 216.463 1722.9 203.119C1722.9 189.775 1725.42 178.085 1730.47 168.049C1735.57 158.013 1742.75 150.22 1752 144.669C1761.25 139.119 1772.18 136.343 1784.8 136.343C1797.41 136.343 1808.35 139.119 1817.6 144.669C1826.85 150.22 1834 158.013 1839.04 168.049C1844.14 178.085 1846.7 189.775 1846.7 203.119C1846.7 216.463 1844.14 228.124 1839.04 238.104C1834 248.084 1826.85 255.849 1817.6 261.4C1808.35 266.951 1797.41 269.726 1784.8 269.726ZM1784.97 245.337C1791.81 245.337 1797.53 243.459 1802.12 239.702C1806.72 235.89 1810.14 230.788 1812.38 224.396C1814.68 218.004 1815.83 210.884 1815.83 203.035C1815.83 195.129 1814.68 187.981 1812.38 181.589C1810.14 175.141 1806.72 170.011 1802.12 166.199C1797.53 162.386 1791.81 160.48 1784.97 160.48C1777.96 160.48 1772.13 162.386 1767.47 166.199C1762.88 170.011 1759.43 175.141 1757.13 181.589C1754.89 187.981 1753.77 195.129 1753.77 203.035C1753.77 210.884 1754.89 218.004 1757.13 224.396C1759.43 230.788 1762.88 235.89 1767.47 239.702C1772.13 243.459 1777.96 245.337 1784.97 245.337Z" fill="white"/>
<path d="M1666.7 267.203V138.025H1697.15V267.203H1666.7ZM1682.01 119.691C1677.19 119.691 1673.04 118.094 1669.56 114.898C1666.09 111.646 1664.35 107.749 1664.35 103.208C1664.35 98.6104 1666.09 94.7137 1669.56 91.5179C1673.04 88.2661 1677.19 86.6401 1682.01 86.6401C1686.89 86.6401 1691.04 88.2661 1694.46 91.5179C1697.93 94.7137 1699.67 98.6104 1699.67 103.208C1699.67 107.749 1697.93 111.646 1694.46 114.898C1691.04 118.094 1686.89 119.691 1682.01 119.691Z" fill="white"/>
<path d="M1565.47 269.473C1555.32 269.473 1546.24 266.866 1538.22 261.652C1530.2 256.438 1523.87 248.869 1519.21 238.945C1514.56 229.021 1512.23 216.967 1512.23 202.782C1512.23 188.429 1514.59 176.319 1519.3 166.451C1524.06 156.527 1530.48 149.042 1538.56 143.996C1546.63 138.894 1555.63 136.343 1565.55 136.343C1573.12 136.343 1579.34 137.633 1584.22 140.212C1589.1 142.735 1592.97 145.79 1595.83 149.379C1598.69 152.911 1600.9 156.247 1602.47 159.386H1603.73V94.9658H1634.26V267.203H1604.32V246.85H1602.47C1600.9 249.99 1598.63 253.326 1595.66 256.858C1592.69 260.334 1588.76 263.306 1583.89 265.773C1579.01 268.24 1572.87 269.473 1565.47 269.473ZM1573.96 244.496C1580.41 244.496 1585.9 242.758 1590.45 239.281C1594.99 235.749 1598.43 230.843 1600.79 224.564C1603.14 218.284 1604.32 210.968 1604.32 202.614C1604.32 194.26 1603.14 186.999 1600.79 180.832C1598.49 174.665 1595.07 169.871 1590.53 166.451C1586.04 163.031 1580.52 161.321 1573.96 161.321C1567.18 161.321 1561.51 163.087 1556.97 166.619C1552.43 170.151 1549.01 175.029 1546.71 181.252C1544.41 187.476 1543.27 194.596 1543.27 202.614C1543.27 210.687 1544.41 217.892 1546.71 224.228C1549.07 230.507 1552.52 235.469 1557.06 239.113C1561.66 242.702 1567.29 244.496 1573.96 244.496Z" fill="white"/>
<path d="M1455.78 212.874V138.025H1486.22V267.203H1456.71V244.243H1455.36C1452.44 251.476 1447.65 257.391 1440.98 261.988C1434.36 266.586 1426.21 268.885 1416.51 268.885C1408.04 268.885 1400.55 267.006 1394.05 263.25C1387.6 259.437 1382.56 253.915 1378.91 246.682C1375.27 239.393 1373.45 230.591 1373.45 220.275V138.025H1403.89V215.565C1403.89 223.751 1406.13 230.255 1410.62 235.076C1415.1 239.898 1420.99 242.309 1428.28 242.309C1432.76 242.309 1437.11 241.216 1441.31 239.029C1445.52 236.842 1448.97 233.591 1451.66 229.273C1454.41 224.9 1455.78 219.434 1455.78 212.874Z" fill="white"/>
<path d="M1347.98 138.025V161.573H1273.72V138.025H1347.98ZM1292.06 107.076H1322.5V228.348C1322.5 232.441 1323.12 235.581 1324.35 237.768C1325.64 239.898 1327.32 241.356 1329.4 242.141C1331.47 242.926 1333.77 243.318 1336.29 243.318C1338.2 243.318 1339.94 243.178 1341.51 242.898C1343.13 242.617 1344.37 242.365 1345.21 242.141L1350.34 265.941C1348.71 266.502 1346.39 267.119 1343.36 267.791C1340.39 268.464 1336.74 268.857 1332.42 268.969C1324.8 269.193 1317.93 268.044 1311.82 265.521C1305.71 262.942 1300.86 258.961 1297.27 253.578C1293.74 248.196 1292 241.468 1292.06 233.394V107.076Z" fill="white"/>
<path d="M1224.63 142.314C1223.84 134.969 1220.54 129.25 1214.71 125.158C1208.93 121.065 1201.42 119.018 1192.17 119.018C1185.66 119.018 1180.08 119.999 1175.43 121.962C1170.78 123.924 1167.22 126.587 1164.75 129.951C1162.28 133.315 1161.02 137.156 1160.97 141.473C1160.97 145.061 1161.78 148.173 1163.4 150.808C1165.09 153.443 1167.36 155.686 1170.22 157.536C1173.08 159.33 1176.24 160.844 1179.72 162.077C1183.2 163.311 1186.7 164.348 1190.23 165.189L1206.38 169.226C1212.88 170.74 1219.13 172.786 1225.13 175.365C1231.19 177.944 1236.6 181.196 1241.37 185.121C1246.19 189.046 1250 193.783 1252.8 199.334C1255.61 204.884 1257.01 211.388 1257.01 218.845C1257.01 228.937 1254.43 237.824 1249.27 245.505C1244.11 253.13 1236.66 259.101 1226.9 263.418C1217.2 267.679 1205.45 269.81 1191.66 269.81C1178.26 269.81 1166.63 267.735 1156.76 263.586C1146.95 259.437 1139.27 253.382 1133.72 245.421C1128.22 237.459 1125.25 227.76 1124.8 216.322H1155.5C1155.95 222.321 1157.8 227.311 1161.05 231.292C1164.3 235.273 1168.53 238.244 1173.75 240.206C1179.02 242.169 1184.91 243.15 1191.41 243.15C1198.19 243.15 1204.14 242.141 1209.24 240.122C1214.4 238.048 1218.43 235.188 1221.35 231.544C1224.27 227.844 1225.75 223.527 1225.81 218.593C1225.75 214.107 1224.43 210.407 1221.85 207.491C1219.28 204.52 1215.66 202.053 1211.01 200.091C1206.41 198.072 1201.03 196.278 1194.86 194.708L1175.26 189.662C1161.08 186.018 1149.86 180.495 1141.62 173.095C1133.44 165.638 1129.34 155.742 1129.34 143.407C1129.34 133.259 1132.09 124.373 1137.59 116.748C1143.14 109.122 1150.68 103.207 1160.21 99.0024C1169.74 94.7414 1180.53 92.6108 1192.59 92.6108C1204.81 92.6108 1215.52 94.7414 1224.71 99.0024C1233.96 103.207 1241.23 109.066 1246.5 116.579C1251.77 124.036 1254.49 132.614 1254.65 142.314H1224.63Z" fill="white"/>
<path d="M1013.16 315.644C1009.8 315.644 1006.8 315.364 1004.16 314.803C1001.53 314.299 999.703 313.794 998.694 313.289L1003.74 295.797C1008.56 297.03 1012.82 297.479 1016.52 297.142C1020.22 296.806 1023.5 295.152 1026.36 292.18C1029.28 289.265 1031.94 284.527 1034.35 277.967L1038.05 267.875L990.284 138.025H1011.81L1047.47 240.963H1048.82L1084.48 138.025H1106.01L1051.17 286.041C1048.71 292.713 1045.65 298.235 1042.01 302.609C1038.36 307.038 1034.13 310.318 1029.31 312.448C1024.54 314.579 1019.16 315.644 1013.16 315.644Z" fill="white"/>
<path d="M964.025 94.9658V267.203H944.178V94.9658H964.025Z" fill="white"/>
<path d="M911.545 138.025V154.845H844.602V138.025H911.545ZM864.113 107.076H883.96V230.199C883.96 235.805 884.773 240.01 886.399 242.814C888.081 245.561 890.212 247.411 892.791 248.364C895.426 249.261 898.201 249.71 901.117 249.71C903.303 249.71 905.098 249.598 906.499 249.373C907.901 249.093 909.022 248.869 909.863 248.701L913.9 266.53C912.554 267.034 910.676 267.539 908.265 268.044C905.854 268.604 902.799 268.885 899.098 268.885C893.492 268.885 887.997 267.679 882.615 265.268C877.288 262.857 872.859 259.185 869.327 254.251C865.851 249.317 864.113 243.094 864.113 235.581V107.076Z" fill="white"/>
<path d="M735.295 189.494V267.203H715.447V94.9658H735.295V158.209H736.977C740.004 151.537 744.546 146.239 750.601 142.314C756.712 138.333 764.842 136.343 774.99 136.343C783.793 136.343 791.502 138.109 798.118 141.641C804.733 145.117 809.864 150.472 813.508 157.704C817.208 164.881 819.058 174.02 819.058 185.121V267.203H799.211V186.467C799.211 176.206 796.548 168.273 791.221 162.666C785.951 157.004 778.634 154.172 769.271 154.172C762.768 154.172 756.937 155.546 751.778 158.293C746.676 161.04 742.64 165.049 739.668 170.319C736.753 175.59 735.295 181.981 735.295 189.494Z" fill="white"/>
<path d="M623.272 318.336C613.685 318.336 605.443 317.102 598.547 314.635C591.651 312.224 585.904 309.029 581.307 305.048C576.765 301.123 573.149 296.918 570.458 292.433L586.268 281.332C588.063 283.686 590.333 286.378 593.08 289.405C595.828 292.489 599.584 295.152 604.35 297.395C609.172 299.694 615.479 300.843 623.272 300.843C633.701 300.843 642.307 298.32 649.091 293.274C655.875 288.228 659.267 280.322 659.267 269.558V243.318H657.585C656.127 245.673 654.053 248.589 651.362 252.065C648.727 255.485 644.914 258.541 639.924 261.232C634.99 263.867 628.318 265.184 619.908 265.184C609.48 265.184 600.117 262.718 591.819 257.784C583.577 252.85 577.045 245.673 572.224 236.254C567.458 226.835 565.075 215.397 565.075 201.941C565.075 188.71 567.402 177.188 572.055 167.376C576.709 157.508 583.185 149.883 591.483 144.501C599.78 139.062 609.368 136.343 620.245 136.343C628.655 136.343 635.327 137.745 640.261 140.548C645.251 143.296 649.063 146.435 651.698 149.967C654.389 153.444 656.464 156.303 657.922 158.546H659.94V138.025H679.115V270.903C679.115 282.004 676.592 291.031 671.546 297.983C666.556 304.992 659.828 310.122 651.362 313.374C642.952 316.682 633.589 318.336 623.272 318.336ZM622.6 247.355C630.561 247.355 637.289 245.533 642.784 241.889C648.278 238.244 652.455 233.002 655.314 226.162C658.174 219.322 659.604 211.136 659.604 201.605C659.604 192.298 658.202 184.084 655.399 176.964C652.595 169.843 648.446 164.264 642.952 160.228C637.457 156.191 630.673 154.172 622.6 154.172C614.19 154.172 607.181 156.303 601.575 160.564C596.024 164.825 591.847 170.544 589.044 177.72C586.296 184.897 584.923 192.858 584.923 201.605C584.923 210.576 586.324 218.509 589.128 225.405C591.987 232.245 596.192 237.628 601.743 241.552C607.349 245.421 614.302 247.355 622.6 247.355Z" fill="white"/>
<path d="M514.931 267.203V138.025H534.779V267.203H514.931ZM525.023 116.496C521.155 116.496 517.819 115.178 515.015 112.543C512.268 109.908 510.895 106.74 510.895 103.04C510.895 99.3391 512.268 96.1713 515.015 93.5362C517.819 90.9011 521.155 89.5835 525.023 89.5835C528.892 89.5835 532.2 90.9011 534.947 93.5362C537.75 96.1713 539.152 99.3391 539.152 103.04C539.152 106.74 537.75 109.908 534.947 112.543C532.2 115.178 528.892 116.496 525.023 116.496Z" fill="white"/>
<path d="M384.407 267.203V94.9658H405.264V248.701H485.327V267.203H384.407Z" fill="white"/>
</g>
<defs>
<linearGradient id="paint0_linear_111_36" x1="163.314" y1="250.072" x2="257.22" y2="60.0512" gradientUnits="userSpaceOnUse">
<stop stop-color="#5C214C"/>
<stop offset="1" stop-color="#B63983"/>
</linearGradient>
<linearGradient id="paint1_linear_111_36" x1="170.787" y1="32.8496" x2="170.787" y2="235.895" gradientUnits="userSpaceOnUse">
<stop stop-color="#90E0FF"/>
<stop offset="0.961538" stop-color="#13A6E6"/>
</linearGradient>
<linearGradient id="paint2_linear_111_36" x1="86.5893" y1="0" x2="86.5893" y2="241.264" gradientUnits="userSpaceOnUse">
<stop stop-color="#90E0FF"/>
<stop offset="0.961538" stop-color="#13A6E6"/>
</linearGradient>
<linearGradient id="paint3_linear_111_36" x1="16.9159" y1="32.8496" x2="16.9159" y2="318.088" gradientUnits="userSpaceOnUse">
<stop stop-color="#90E0FF"/>
<stop offset="0.961538" stop-color="#13A6E6"/>
</linearGradient>
<clipPath id="clip0_111_36">
<rect width="1846" height="318" fill="white"/>
</clipPath>
</defs>
</svg>
