<svg xmlns="http://www.w3.org/2000/svg" viewBox="0 0 1280 820" role="img" aria-labelledby="title desc">
  <title id="title">Enterprise Deployment Topology</title>
  <desc id="desc">Enterprise deployment topology showing the same Frontend, Backend API, and Datasets DB core components as OSS, with an Auth Service added around them.</desc>
  <defs>
    <style>
      .panel-customer { fill: #f1f5f9; stroke: #94a3b8; stroke-width: 2; stroke-dasharray: 6 4; }
      .panel-enterprise { fill: #f8fafc; stroke: #94a3b8; stroke-width: 2; }
      .panel-lightly { fill: #eef2ff; stroke: #94a3b8; stroke-width: 2; stroke-dasharray: 6 4; }
      .node-ui { fill: #e0f2fe; stroke: #0284c7; stroke-width: 2; }
      .node-service { fill: #dcfce7; stroke: #16a34a; stroke-width: 2; }
      .node-security { fill: #f3e8ff; stroke: #7c3aed; stroke-width: 2; }
      .node-data { fill: #e2e8f0; stroke: #475569; stroke-width: 2; }
      .node-external { fill: #fef3c7; stroke: #b45309; stroke-width: 2; }
      .panel-title { fill: #334155; font-family: -apple-system, "Segoe UI", Inter, Arial, sans-serif; font-size: 20px; font-weight: 700; }
      .panel-subtitle { fill: #64748b; font-family: -apple-system, "Segoe UI", Inter, Arial, sans-serif; font-size: 13px; font-style: italic; }
      .label { fill: #0f172a; font-family: -apple-system, "Segoe UI", Inter, Arial, sans-serif; font-size: 17px; font-weight: 700; }
      .small { fill: #475569; font-family: -apple-system, "Segoe UI", Inter, Arial, sans-serif; font-size: 14px; }
      .legend-text { fill: #334155; font-family: -apple-system, "Segoe UI", Inter, Arial, sans-serif; font-size: 13px; }
      .edge { stroke: #475569; stroke-width: 3; stroke-linecap: round; fill: none; }
      .edge-storage { stroke: #475569; stroke-width: 3; stroke-linecap: round; fill: none; stroke-dasharray: 6 4; }
    </style>
  </defs>

  <!-- Customer panel -->
  <rect class="panel-customer" x="30" y="20" width="330" height="660" rx="16" ry="16"/>
  <text class="panel-title" x="56" y="52">Customer Environment</text>
  <text class="panel-subtitle" x="56" y="72">runs in customer network</text>

  <g>
    <title>User in Browser</title>
    <rect class="node-ui" x="65" y="150" width="260" height="82" rx="12" ry="12"/>
    <text class="label" x="195" y="199" text-anchor="middle">User in Browser</text>
  </g>

  <g>
    <title>Customer Storage</title>
    <rect class="node-external" x="65" y="330" width="260" height="100" rx="12" ry="12"/>
    <text class="label" x="195" y="370" text-anchor="middle">Customer Storage</text>
    <text class="small" x="195" y="397" text-anchor="middle">local files or cloud bucket</text>
  </g>

  <g>
    <title>Python API and scripts</title>
    <rect class="node-service" x="65" y="530" width="260" height="100" rx="12" ry="12"/>
    <text class="label" x="195" y="570" text-anchor="middle">Python API / Scripts</text>
    <text class="small" x="195" y="597" text-anchor="middle">admin workflows via ls.connect()</text>
  </g>

  <!-- Enterprise outer panel -->
  <rect class="panel-enterprise" x="390" y="20" width="860" height="660" rx="16" ry="16"/>
  <text class="panel-title" x="416" y="52">Enterprise Application Environment</text>
  <text class="panel-subtitle" x="416" y="72">deployed in customer infrastructure</text>

  <g>
    <title>Auth Service</title>
    <rect class="node-security" x="470" y="150" width="230" height="82" rx="12" ry="12"/>
    <text class="label" x="585" y="199" text-anchor="middle">Auth Service</text>
  </g>

  <!-- LightlyStudio Core nested panel -->
  <rect class="panel-lightly" x="770" y="90" width="380" height="590" rx="16" ry="16"/>
  <text class="panel-title" x="796" y="122">LightlyStudio Core</text>
  <text class="panel-subtitle" x="796" y="142">shipped by Lightly</text>

  <g>
    <title>Frontend</title>
    <rect class="node-ui" x="820" y="150" width="280" height="82" rx="12" ry="12"/>
    <text class="label" x="960" y="199" text-anchor="middle">Frontend</text>
  </g>

  <g>
    <title>Backend API</title>
    <rect class="node-service" x="820" y="330" width="280" height="100" rx="12" ry="12"/>
    <text class="label" x="960" y="386" text-anchor="middle">Backend API</text>
  </g>

  <g>
    <title>Datasets database</title>
    <rect class="node-data" x="820" y="530" width="280" height="100" rx="12" ry="12"/>
    <text class="label" x="960" y="586" text-anchor="middle">Datasets DB</text>
  </g>

  <!-- Edges: solid = service traffic, dashed = storage I/O -->
  <line class="edge" x1="325" y1="191" x2="470" y2="191"/>
  <line class="edge" x1="700" y1="191" x2="820" y2="191"/>
  <line class="edge" x1="960" y1="232" x2="960" y2="330"/>
  <line class="edge" x1="960" y1="430" x2="960" y2="530"/>
  <line class="edge-storage" x1="820" y1="380" x2="325" y2="380"/>
  <line class="edge-storage" x1="195" y1="530" x2="195" y2="430"/>
  <line class="edge" x1="325" y1="580" x2="820" y2="580"/>

  <!-- Legend -->
  <g>
    <title>Legend</title>
    <rect x="30" y="720" width="1220" height="80" rx="12" ry="12" fill="#ffffff" stroke="#cbd5e1" stroke-width="1"/>
    <text class="panel-subtitle" x="50" y="744">Legend</text>

    <rect class="node-ui" x="50" y="756" width="22" height="22" rx="6" ry="6"/>
    <text class="legend-text" x="80" y="773">User-facing UI</text>

    <rect class="node-service" x="240" y="756" width="22" height="22" rx="6" ry="6"/>
    <text class="legend-text" x="270" y="773">Application service</text>

    <rect class="node-security" x="450" y="756" width="22" height="22" rx="6" ry="6"/>
    <text class="legend-text" x="480" y="773">Security / identity</text>

    <rect class="node-data" x="660" y="756" width="22" height="22" rx="6" ry="6"/>
    <text class="legend-text" x="690" y="773">Data store</text>

    <rect class="node-external" x="830" y="756" width="22" height="22" rx="6" ry="6"/>
    <text class="legend-text" x="860" y="773">Customer-managed asset</text>

    <line class="edge" x1="1060" y1="760" x2="1100" y2="760"/>
    <text class="legend-text" x="1106" y="764">service link</text>
    <line class="edge-storage" x1="1060" y1="780" x2="1100" y2="780"/>
    <text class="legend-text" x="1106" y="784">storage I/O</text>
  </g>
</svg>
