<svg xmlns="http://www.w3.org/2000/svg" viewBox="0 0 840 590" role="img" aria-labelledby="title desc">
  <title id="title">Core LightlyStudio Architecture</title>
  <desc id="desc">Core LightlyStudio architecture showing the shared Frontend, Backend API, and Datasets DB components used across deployment models.</desc>
  <defs>
    <style>
      .panel-customer { fill: #f1f5f9; stroke: #94a3b8; stroke-width: 2; stroke-dasharray: 6 4; }
      .panel-lightly { fill: #eef2ff; stroke: #94a3b8; stroke-width: 2; stroke-dasharray: 6 4; }
      .node-ui { fill: #e0f2fe; stroke: #0284c7; stroke-width: 2; }
      .node-service { fill: #dcfce7; stroke: #16a34a; stroke-width: 2; }
      .node-data { fill: #e2e8f0; stroke: #475569; stroke-width: 2; }
      .node-external { fill: #fef3c7; stroke: #b45309; stroke-width: 2; }
      .panel-title { fill: #334155; font-family: -apple-system, "Segoe UI", Inter, Arial, sans-serif; font-size: 20px; font-weight: 700; }
      .label { fill: #0f172a; font-family: -apple-system, "Segoe UI", Inter, Arial, sans-serif; font-size: 17px; font-weight: 700; }
      .small { fill: #475569; font-family: -apple-system, "Segoe UI", Inter, Arial, sans-serif; font-size: 14px; }
      .legend-text { fill: #334155; font-family: -apple-system, "Segoe UI", Inter, Arial, sans-serif; font-size: 13px; }
      .legend-title { fill: #64748b; font-family: -apple-system, "Segoe UI", Inter, Arial, sans-serif; font-size: 13px; font-style: italic; }
      .edge { stroke: #475569; stroke-width: 3; stroke-linecap: round; fill: none; }
    </style>
  </defs>

  <!-- Customer panel -->
  <rect class="panel-customer" x="20" y="10" width="320" height="490" rx="16" ry="16"/>
  <text class="panel-title" x="40" y="42">Customer Environment</text>

  <g>
    <title>User in Browser</title>
    <rect class="node-ui" x="55" y="70" width="250" height="76" rx="12" ry="12"/>
    <text class="label" x="180" y="115" text-anchor="middle">User in Browser</text>
  </g>

  <g>
    <title>Customer Storage</title>
    <rect class="node-external" x="55" y="210" width="250" height="92" rx="12" ry="12"/>
    <text class="label" x="180" y="246" text-anchor="middle">Customer Storage</text>
    <text class="small" x="180" y="271" text-anchor="middle">local files or cloud bucket</text>
  </g>

  <g>
    <title>Python API and scripts</title>
    <rect class="node-service" x="55" y="370" width="250" height="92" rx="12" ry="12"/>
    <text class="label" x="180" y="406" text-anchor="middle">Python API / Scripts</text>
    <text class="small" x="180" y="431" text-anchor="middle">read, index, and update data</text>
  </g>

  <!-- LightlyStudio Core panel -->
  <rect class="panel-lightly" x="380" y="10" width="440" height="490" rx="16" ry="16"/>
  <text class="panel-title" x="400" y="42">LightlyStudio Core</text>

  <g>
    <title>Frontend</title>
    <rect class="node-ui" x="455" y="70" width="290" height="76" rx="12" ry="12"/>
    <text class="label" x="600" y="115" text-anchor="middle">Frontend</text>
  </g>

  <g>
    <title>Backend API</title>
    <rect class="node-service" x="455" y="210" width="290" height="92" rx="12" ry="12"/>
    <text class="label" x="600" y="262" text-anchor="middle">Backend API</text>
  </g>

  <g>
    <title>Datasets database</title>
    <rect class="node-data" x="455" y="370" width="290" height="92" rx="12" ry="12"/>
    <text class="label" x="600" y="422" text-anchor="middle">Datasets DB</text>
  </g>

  <!-- Edges -->
  <line class="edge" x1="305" y1="108" x2="455" y2="108"/>
  <line class="edge" x1="600" y1="146" x2="600" y2="210"/>
  <line class="edge" x1="600" y1="302" x2="600" y2="370"/>
  <line class="edge" x1="455" y1="256" x2="305" y2="256"/>
  <line class="edge" x1="180" y1="370" x2="180" y2="302"/>
  <line class="edge" x1="305" y1="416" x2="455" y2="416"/>

  <!-- Legend -->
  <g>
    <title>Legend</title>
    <rect x="20" y="520" width="800" height="56" rx="12" ry="12" fill="#ffffff" stroke="#cbd5e1" stroke-width="1"/>
    <text class="legend-title" x="36" y="540">Legend</text>

    <rect class="node-ui" x="36" y="548" width="20" height="20" rx="6" ry="6"/>
    <text class="legend-text" x="64" y="563">User-facing UI</text>

    <rect class="node-service" x="180" y="548" width="20" height="20" rx="6" ry="6"/>
    <text class="legend-text" x="208" y="563">Application service</text>

    <rect class="node-data" x="360" y="548" width="20" height="20" rx="6" ry="6"/>
    <text class="legend-text" x="388" y="563">Data store</text>

    <rect class="node-external" x="500" y="548" width="20" height="20" rx="6" ry="6"/>
    <text class="legend-text" x="528" y="563">Customer-managed asset</text>
  </g>
</svg>
