<svg xmlns="http://www.w3.org/2000/svg" viewBox="0 0 960 500" role="img" aria-labelledby="title desc">
  <title id="title">On-Premise Deployment Layout</title>
  <desc id="desc">On-premise LightlyStudio deployment layout showing the Lightly Proxy in front of the Auth Service, Workspace GUI, Studio App, and a separate PostgreSQL datasets database.</desc>
  <defs>
    <style>
      .panel-enterprise { fill: #f8fafc; stroke: #94a3b8; stroke-width: 2; }
      .node-ui { fill: #e0f2fe; stroke: #0284c7; stroke-width: 2; }
      .node-service { fill: #dcfce7; stroke: #16a34a; stroke-width: 2; }
      .node-security { fill: #f3e8ff; stroke: #7c3aed; stroke-width: 2; }
      .node-data { fill: #e2e8f0; stroke: #475569; stroke-width: 2; }
      .panel-title { fill: #334155; font-family: -apple-system, "Segoe UI", Inter, Arial, sans-serif; font-size: 20px; font-weight: 700; }
      .panel-subtitle { fill: #64748b; font-family: -apple-system, "Segoe UI", Inter, Arial, sans-serif; font-size: 13px; font-style: italic; }
      .label { fill: #0f172a; font-family: -apple-system, "Segoe UI", Inter, Arial, sans-serif; font-size: 17px; font-weight: 700; }
      .small { fill: #475569; font-family: -apple-system, "Segoe UI", Inter, Arial, sans-serif; font-size: 14px; }
      .legend-text { fill: #334155; font-family: -apple-system, "Segoe UI", Inter, Arial, sans-serif; font-size: 13px; }
      .edge { stroke: #475569; stroke-width: 3; stroke-linecap: round; fill: none; }
    </style>
  </defs>

  <!-- Outer panel -->
  <rect class="panel-enterprise" x="10" y="10" width="940" height="388" rx="16" ry="16"/>
  <text class="panel-title" x="36" y="42">On-Premise Deployment</text>

  <!-- Lightly Proxy: full-width bar -->
  <g>
    <title>Lightly Proxy</title>
    <rect class="node-security" x="40" y="80" width="880" height="68" rx="12" ry="12"/>
    <text class="label" x="480" y="109" text-anchor="middle">Lightly Proxy</text>
    <text class="small" x="480" y="131" text-anchor="middle">compose service: lightly-studio-proxy</text>
  </g>

  <!-- Lines: proxy → services -->
  <line class="edge" x1="140" y1="148" x2="140" y2="172"/>
  <line class="edge" x1="439" y1="148" x2="439" y2="172"/>
  <line class="edge" x1="779" y1="148" x2="779" y2="172"/>

  <!-- Auth Service -->
  <g>
    <title>Auth Service</title>
    <rect class="node-security" x="40" y="172" width="200" height="116" rx="12" ry="12"/>
    <text class="label" x="140" y="223" text-anchor="middle">Auth Service</text>
    <text class="small" x="140" y="247" text-anchor="middle">compose service: auth</text>
  </g>

  <!-- Workspace GUI -->
  <g>
    <title>Workspace GUI</title>
    <rect class="node-ui" x="264" y="172" width="350" height="116" rx="12" ry="12"/>
    <text class="label" x="439" y="216" text-anchor="middle">Workspace GUI</text>
    <text class="small" x="439" y="240" text-anchor="middle">login, datasets page, admin page</text>
    <text class="small" x="439" y="264" text-anchor="middle">compose service: lightly-studio-workspace</text>
  </g>

  <!-- Studio App -->
  <g>
    <title>Studio App</title>
    <rect class="node-service" x="638" y="172" width="282" height="116" rx="12" ry="12"/>
    <text class="label" x="779" y="223" text-anchor="middle">Studio App</text>
    <text class="small" x="779" y="247" text-anchor="middle">compose service: studio</text>
  </g>

  <!-- Line: studio → db -->
  <line class="edge" x1="779" y1="288" x2="779" y2="312"/>
  <!-- Line: auth → users db -->
  <line class="edge" x1="140" y1="288" x2="140" y2="312"/>

  <!-- Datasets DB -->
  <g>
    <title>Datasets database (PostgreSQL)</title>
    <rect class="node-data" x="638" y="312" width="282" height="64" rx="12" ry="12"/>
    <text class="label" x="779" y="341" text-anchor="middle">Datasets DB</text>
    <text class="small" x="779" y="363" text-anchor="middle">compose service: db (PostgreSQL)</text>
  </g>

  <!-- Users DB (SQLite on auth_data volume) -->
  <g>
    <title>Users database (SQLite)</title>
    <rect class="node-data" x="40" y="312" width="200" height="64" rx="12" ry="12"/>
    <text class="label" x="140" y="341" text-anchor="middle">Users DB</text>
    <text class="small" x="140" y="363" text-anchor="middle">sqlite on auth_data volume</text>
  </g>

  <!-- Legend -->
  <g>
    <title>Legend</title>
    <rect x="10" y="418" width="940" height="72" rx="12" ry="12" fill="#ffffff" stroke="#cbd5e1" stroke-width="1"/>
    <text class="panel-subtitle" x="30" y="440">Legend</text>

    <rect class="node-ui" x="30" y="452" width="22" height="22" rx="6" ry="6"/>
    <text class="legend-text" x="60" y="469">User-facing UI</text>

    <rect class="node-service" x="200" y="452" width="22" height="22" rx="6" ry="6"/>
    <text class="legend-text" x="230" y="469">Application service</text>

    <rect class="node-security" x="390" y="452" width="22" height="22" rx="6" ry="6"/>
    <text class="legend-text" x="420" y="469">Security / identity</text>

    <rect class="node-data" x="580" y="452" width="22" height="22" rx="6" ry="6"/>
    <text class="legend-text" x="610" y="469">Data store</text>
  </g>
</svg>
