<svg xmlns="http://www.w3.org/2000/svg" viewBox="0 0 1240 620" role="img" aria-labelledby="title desc">
  <title id="title">Core LightlyStudio Architecture</title>
  <desc id="desc">Core LightlyStudio architecture showing the shared Frontend, Backend API, and Datasets DB components used across deployment models.</desc>
  <defs>
    <style>
      .panel { fill: #f8fafc; stroke: #cbd5e1; stroke-width: 2; rx: 18; ry: 18; }
      .node-blue { fill: #e0f2fe; stroke: #38bdf8; stroke-width: 2; rx: 14; ry: 14; }
      .node-green { fill: #dcfce7; stroke: #4ade80; stroke-width: 2; rx: 14; ry: 14; }
      .node-slate { fill: #e2e8f0; stroke: #94a3b8; stroke-width: 2; rx: 14; ry: 14; }
      .node-gold { fill: #fef3c7; stroke: #f59e0b; stroke-width: 2; rx: 14; ry: 14; }
      .panel-title { fill: #334155; font-family: Arial, sans-serif; font-size: 22px; font-weight: 700; }
      .label { fill: #0f172a; font-family: Arial, sans-serif; font-size: 21px; font-weight: 700; }
      .small { fill: #334155; font-family: Arial, sans-serif; font-size: 17px; }
      .edge-label { fill: #334155; font-family: Arial, sans-serif; font-size: 18px; font-weight: 700; }
    </style>
  </defs>

  <rect class="panel" x="30" y="20" width="350" height="580" rx="18" ry="18"/>
  <text class="panel-title" x="56" y="56">Customer Environment</text>

  <rect class="node-blue" x="75" y="105" width="260" height="82" rx="14" ry="14"/>
  <text class="label" x="205" y="154" text-anchor="middle">User in Browser</text>

  <rect class="node-gold" x="75" y="265" width="260" height="100" rx="14" ry="14"/>
  <text class="label" x="205" y="313" text-anchor="middle">Customer Storage</text>
  <text class="small" x="205" y="342" text-anchor="middle">local files or cloud bucket</text>

  <rect class="node-green" x="75" y="435" width="260" height="100" rx="14" ry="14"/>
  <text class="label" x="205" y="483" text-anchor="middle">Python API / Scripts</text>
  <text class="small" x="205" y="512" text-anchor="middle">read, index, and update data</text>

  <rect class="panel" x="430" y="20" width="470" height="580" rx="18" ry="18"/>
  <text class="panel-title" x="456" y="56">LightlyStudio Core</text>

  <rect class="node-blue" x="525" y="105" width="280" height="82" rx="14" ry="14"/>
  <text class="label" x="665" y="154" text-anchor="middle">Frontend</text>

  <rect class="node-green" x="525" y="265" width="280" height="100" rx="14" ry="14"/>
  <text class="label" x="665" y="313" text-anchor="middle">Backend API</text>

  <rect class="node-slate" x="525" y="435" width="280" height="100" rx="14" ry="14"/>
  <text class="label" x="665" y="483" text-anchor="middle">Datasets DB</text>

  <line x1="335" y1="146" x2="525" y2="146" stroke="#475569" stroke-width="4" stroke-linecap="round"/>

  <line x1="665" y1="187" x2="665" y2="265" stroke="#475569" stroke-width="4" stroke-linecap="round"/>

  <line x1="665" y1="365" x2="665" y2="435" stroke="#475569" stroke-width="4" stroke-linecap="round"/>

  <line x1="525" y1="315" x2="335" y2="315" stroke="#475569" stroke-width="4" stroke-linecap="round"/>

  <line x1="205" y1="435" x2="205" y2="365" stroke="#475569" stroke-width="4" stroke-linecap="round"/>

  <line x1="335" y1="485" x2="525" y2="485" stroke="#475569" stroke-width="4" stroke-linecap="round"/>
</svg>
