<svg xmlns="http://www.w3.org/2000/svg" viewBox="0 0 1240 720" role="img" aria-labelledby="title desc">
  <title id="title">Core LightlyStudio Architecture</title>
  <desc id="desc">Core LightlyStudio architecture showing the shared Frontend, Backend API, and Datasets DB components used across deployment models.</desc>
  <defs>
    <style>
      .panel-customer { fill: #f1f5f9; stroke: #94a3b8; stroke-width: 2; stroke-dasharray: 6 4; }
      .panel-lightly { fill: #eef2ff; stroke: #94a3b8; stroke-width: 2; stroke-dasharray: 6 4; }
      .node-ui { fill: #e0f2fe; stroke: #0284c7; stroke-width: 2; }
      .node-service { fill: #dcfce7; stroke: #16a34a; stroke-width: 2; }
      .node-security { fill: #f3e8ff; stroke: #7c3aed; stroke-width: 2; }
      .node-data { fill: #e2e8f0; stroke: #475569; stroke-width: 2; }
      .node-external { fill: #fef3c7; stroke: #b45309; stroke-width: 2; }
      .panel-title { fill: #334155; font-family: -apple-system, "Segoe UI", Inter, Arial, sans-serif; font-size: 20px; font-weight: 700; }
      .panel-subtitle { fill: #64748b; font-family: -apple-system, "Segoe UI", Inter, Arial, sans-serif; font-size: 13px; font-style: italic; }
      .label { fill: #0f172a; font-family: -apple-system, "Segoe UI", Inter, Arial, sans-serif; font-size: 17px; font-weight: 700; }
      .small { fill: #475569; font-family: -apple-system, "Segoe UI", Inter, Arial, sans-serif; font-size: 14px; }
      .legend-text { fill: #334155; font-family: -apple-system, "Segoe UI", Inter, Arial, sans-serif; font-size: 13px; }
      .edge { stroke: #475569; stroke-width: 3; stroke-linecap: round; fill: none; }
      .edge-storage { stroke: #475569; stroke-width: 3; stroke-linecap: round; fill: none; stroke-dasharray: 6 4; }
    </style>
  </defs>

  <!-- Customer panel -->
  <rect class="panel-customer" x="30" y="20" width="350" height="580" rx="16" ry="16"/>
  <text class="panel-title" x="56" y="52">Customer Environment</text>
  <text class="panel-subtitle" x="56" y="72">runs in customer network</text>

  <g>
    <title>User in Browser</title>
    <rect class="node-ui" x="75" y="105" width="260" height="82" rx="12" ry="12"/>
    <text class="label" x="205" y="154" text-anchor="middle">User in Browser</text>
  </g>

  <g>
    <title>Customer Storage</title>
    <rect class="node-external" x="75" y="265" width="260" height="100" rx="12" ry="12"/>
    <text class="label" x="205" y="305" text-anchor="middle">Customer Storage</text>
    <text class="small" x="205" y="332" text-anchor="middle">local files or cloud bucket</text>
  </g>

  <g>
    <title>Python API and scripts</title>
    <rect class="node-service" x="75" y="435" width="260" height="100" rx="12" ry="12"/>
    <text class="label" x="205" y="475" text-anchor="middle">Python API / Scripts</text>
    <text class="small" x="205" y="502" text-anchor="middle">read, index, and update data</text>
  </g>

  <!-- LightlyStudio Core panel -->
  <rect class="panel-lightly" x="430" y="20" width="470" height="580" rx="16" ry="16"/>
  <text class="panel-title" x="456" y="52">LightlyStudio Core</text>
  <text class="panel-subtitle" x="456" y="72">shipped by Lightly</text>

  <g>
    <title>Frontend</title>
    <rect class="node-ui" x="525" y="105" width="280" height="82" rx="12" ry="12"/>
    <text class="label" x="665" y="154" text-anchor="middle">Frontend</text>
  </g>

  <g>
    <title>Backend API</title>
    <rect class="node-service" x="525" y="265" width="280" height="100" rx="12" ry="12"/>
    <text class="label" x="665" y="321" text-anchor="middle">Backend API</text>
  </g>

  <g>
    <title>Datasets database</title>
    <rect class="node-data" x="525" y="435" width="280" height="100" rx="12" ry="12"/>
    <text class="label" x="665" y="491" text-anchor="middle">Datasets DB</text>
  </g>

  <!-- Edges: solid = service traffic, dashed = storage I/O -->
  <line class="edge" x1="335" y1="146" x2="525" y2="146"/>
  <line class="edge" x1="665" y1="187" x2="665" y2="265"/>
  <line class="edge" x1="665" y1="365" x2="665" y2="435"/>
  <line class="edge-storage" x1="525" y1="315" x2="335" y2="315"/>
  <line class="edge-storage" x1="205" y1="435" x2="205" y2="365"/>
  <line class="edge" x1="335" y1="485" x2="525" y2="485"/>

  <!-- Legend -->
  <g>
    <title>Legend</title>
    <rect x="30" y="630" width="1180" height="70" rx="12" ry="12" fill="#ffffff" stroke="#cbd5e1" stroke-width="1"/>
    <text class="panel-subtitle" x="50" y="652">Legend</text>

    <rect class="node-ui" x="50" y="664" width="22" height="22" rx="6" ry="6"/>
    <text class="legend-text" x="80" y="681">User-facing UI</text>

    <rect class="node-service" x="240" y="664" width="22" height="22" rx="6" ry="6"/>
    <text class="legend-text" x="270" y="681">Application service</text>

    <rect class="node-security" x="450" y="664" width="22" height="22" rx="6" ry="6"/>
    <text class="legend-text" x="480" y="681">Security / identity</text>

    <rect class="node-data" x="660" y="664" width="22" height="22" rx="6" ry="6"/>
    <text class="legend-text" x="690" y="681">Data store</text>

    <rect class="node-external" x="830" y="664" width="22" height="22" rx="6" ry="6"/>
    <text class="legend-text" x="860" y="681">Customer-managed asset</text>

    <line class="edge" x1="1040" y1="668" x2="1080" y2="668"/>
    <text class="legend-text" x="1086" y="672">service link</text>
    <line class="edge-storage" x1="1040" y1="688" x2="1080" y2="688"/>
    <text class="legend-text" x="1086" y="692">storage I/O</text>
  </g>
</svg>
